<svg width="20" height="20" viewBox="0 0 20 20" fill="none" xmlns="http://www.w3.org/2000/svg">
<path fill-rule="evenodd" clip-rule="evenodd" d="M8.5911 1.87502H11.409C11.5893 1.8749 11.7464 1.8748 11.8947 1.89849C12.4808 1.99208 12.988 2.35762 13.2621 2.88403C13.3315 3.01727 13.3811 3.16634 13.438 3.33745L13.531 3.61654C13.5468 3.66378 13.5513 3.67715 13.5551 3.68768C13.701 4.09111 14.0794 4.36383 14.5082 4.3747C14.5195 4.37498 14.5333 4.37503 14.5834 4.37503H17.0834C17.4285 4.37503 17.7084 4.65485 17.7084 5.00003C17.7084 5.34521 17.4285 5.62503 17.0834 5.62503H2.91663C2.57145 5.62503 2.29163 5.34521 2.29163 5.00003C2.29163 4.65485 2.57145 4.37503 2.91663 4.37503H5.4167C5.46673 4.37503 5.48054 4.37498 5.49182 4.3747C5.9207 4.36383 6.29905 4.09113 6.44498 3.6877C6.44882 3.67709 6.45323 3.66401 6.46905 3.61654L6.56206 3.33747C6.61897 3.16637 6.66856 3.01728 6.73795 2.88403C7.01207 2.35762 7.51923 1.99208 8.10532 1.89849C8.25367 1.8748 8.41077 1.8749 8.5911 1.87502ZM7.50675 4.37503C7.54968 4.29085 7.58771 4.20337 7.62044 4.1129C7.63038 4.08543 7.64012 4.05619 7.65264 4.01861L7.73581 3.7691C7.81179 3.54118 7.82928 3.49469 7.84663 3.46137C7.93801 3.2859 8.10706 3.16405 8.30242 3.13285C8.33953 3.12693 8.38915 3.12503 8.62941 3.12503H11.3706C11.6109 3.12503 11.6605 3.12693 11.6976 3.13285C11.893 3.16405 12.062 3.2859 12.1534 3.46137C12.1708 3.49469 12.1883 3.54117 12.2642 3.7691L12.3474 4.01846L12.3796 4.11292C12.4123 4.20338 12.4504 4.29085 12.4933 4.37503H7.50675Z" fill="#BBBBBB"/>
<path d="M4.9292 7.04179C4.90624 6.69738 4.60842 6.43679 4.26401 6.45975C3.9196 6.48271 3.65901 6.78053 3.68197 7.12494L4.06818 12.9181C4.13942 13.987 4.19697 14.8505 4.33195 15.528C4.47228 16.2324 4.71097 16.8208 5.20396 17.2821C5.69696 17.7433 6.29991 17.9423 7.01212 18.0355C7.69714 18.1251 8.5625 18.125 9.6338 18.125H10.3662C11.4375 18.125 12.3029 18.1251 12.9879 18.0355C13.7001 17.9423 14.3031 17.7433 14.7961 17.2821C15.2891 16.8208 15.5278 16.2324 15.6681 15.528C15.8031 14.8505 15.8606 13.987 15.9319 12.9181L16.3181 7.12494C16.3411 6.78053 16.0805 6.48271 15.736 6.45975C15.3916 6.43679 15.0938 6.69738 15.0709 7.04179L14.6876 12.7911C14.6127 13.9143 14.5593 14.6958 14.4422 15.2838C14.3286 15.8542 14.17 16.1561 13.9421 16.3692C13.7143 16.5824 13.4025 16.7206 12.8258 16.796C12.2313 16.8738 11.448 16.875 10.3223 16.875H9.67779C8.55209 16.875 7.76875 16.8738 7.17425 16.796C6.59758 16.7206 6.28579 16.5824 6.05794 16.3692C5.8301 16.1561 5.67149 15.8542 5.55786 15.2838C5.44072 14.6958 5.38737 13.9143 5.31248 12.7911L4.9292 7.04179Z" fill="#BBBBBB"/>
<path d="M7.85451 8.5448C8.19798 8.51045 8.50425 8.76104 8.5386 9.10451L8.95527 13.2712C8.98961 13.6146 8.73902 13.9209 8.39556 13.9553C8.05209 13.9896 7.74582 13.739 7.71147 13.3956L7.2948 9.22889C7.26046 8.88542 7.51105 8.57915 7.85451 8.5448Z" fill="#BBBBBB"/>
<path d="M12.1456 8.5448C12.489 8.57915 12.7396 8.88542 12.7053 9.22889L12.2886 13.3956C12.2543 13.739 11.948 13.9896 11.6045 13.9553C11.261 13.9209 11.0105 13.6146 11.0448 13.2712L11.4615 9.10451C11.4958 8.76104 11.8021 8.51045 12.1456 8.5448Z" fill="#BBBBBB"/>
</svg>
