<svg width="20" height="20" viewBox="0 0 20 20" fill="none" xmlns="http://www.w3.org/2000/svg">
<path fill-rule="evenodd" clip-rule="evenodd" d="M12.2973 2.18438C13.8211 0.660546 16.2917 0.660546 17.8156 2.18438C19.3394 3.70821 19.3394 6.17883 17.8156 7.70266L9.91114 15.6071C9.45954 16.0587 9.1937 16.3246 8.89796 16.5552C8.54937 16.8271 8.17221 17.0602 7.77313 17.2504C7.43455 17.4118 7.07787 17.5307 6.47194 17.7326L3.69601 18.6579L3.02761 18.8807C2.48547 19.0614 1.88777 18.9203 1.48368 18.5163C1.0796 18.1122 0.9385 17.5145 1.11921 16.9723L2.26731 13.528C2.46927 12.9221 2.58815 12.5654 2.74951 12.2268C2.9397 11.8277 3.17281 11.4506 3.44469 11.102C3.67537 10.8062 3.94124 10.5404 4.39289 10.0888L12.2973 2.18438ZM3.66717 17.3499L6.03511 16.5606C6.69437 16.3409 6.97447 16.2463 7.23536 16.122C7.55247 15.9709 7.85218 15.7857 8.12918 15.5696C8.35706 15.3919 8.56686 15.1836 9.05824 14.6922L15.3661 8.38431C14.7089 8.15251 13.8623 7.72286 13.0697 6.93026C12.2771 6.13766 11.8474 5.291 11.6156 4.63379L5.30773 10.9417C4.81634 11.4331 4.60807 11.6429 4.43033 11.8708C4.21428 12.1477 4.02905 12.4475 3.87792 12.7646C3.75359 13.0255 3.65908 13.3056 3.43933 13.9648L2.65002 16.3328L3.66717 17.3499ZM12.6295 3.61987C12.658 3.76567 12.7062 3.96387 12.7866 4.19557C12.9676 4.71719 13.3094 5.40224 13.9536 6.04638C14.5977 6.69051 15.2827 7.03236 15.8044 7.21334C16.0361 7.29372 16.2343 7.34189 16.3801 7.37039L16.9317 6.81877C17.9674 5.7831 17.9674 4.10394 16.9317 3.06826C15.896 2.03258 14.2168 2.03258 13.1812 3.06826L12.6295 3.61987Z" fill="#BBBBBB"/>
</svg>
