<svg width="188" height="52" viewBox="0 0 188 52" fill="none" xmlns="http://www.w3.org/2000/svg">
<rect x="0.5" y="0.5" width="186.881" height="51" rx="5.5" fill="#FAFAFA"/>
<rect x="0.5" y="0.5" width="186.881" height="51" rx="5.5" stroke="#282828"/>
<path d="M53.9039 25.7774C53.8954 25.9024 53.8232 26.015 53.6914 26.1275C53.6403 26.1692 53.5851 26.2109 53.534 26.2484C53.4873 26.286 53.4448 26.3235 53.398 26.3568C53.2194 26.4944 53.0323 26.582 52.8368 26.6153C52.0842 26.7446 51.5995 26.7612 51.4082 26.6653C51.1871 26.5569 51.1276 26.1442 51.1021 25.99V25.9399C51.0723 25.8107 50.9958 25.5397 50.9916 25.5356C50.9916 25.5272 50.9873 25.523 50.9873 25.5189C50.9958 25.4939 51.0468 25.4605 51.0723 25.4397L51.1021 25.4105C51.3232 25.2145 51.5953 25.0103 51.9609 24.9602C52.0885 24.9436 52.2075 24.8977 52.3223 24.856C52.3776 24.831 52.4329 24.8143 52.4924 24.7977C52.5859 24.7643 52.6667 24.7643 52.7305 24.7893C53.0791 24.9186 53.466 25.0936 53.7636 25.4188C53.8699 25.5397 53.9209 25.6606 53.9124 25.7815L53.9039 25.7774Z" fill="#FFE888"/>
<path d="M52.6327 27.9446C52.5052 28.0447 52.3649 28.1739 52.2458 28.3365C52.1523 28.4657 52.012 28.5116 51.8717 28.5449C51.8632 28.5449 51.8589 28.5491 51.8547 28.5491L51.404 28.6783C51.3743 28.6909 51.3275 28.7034 51.2637 28.72H51.2467C50.8683 28.8243 50.5537 28.7826 50.2476 28.5908C49.8989 28.374 49.7841 28.053 49.8989 27.6611C50.0265 27.2651 50.2646 27.0233 50.6302 26.9274C50.6727 26.9149 50.711 26.8899 50.7365 26.8732C50.7493 26.8607 50.779 26.8398 50.7875 26.8398C50.8215 26.8565 50.8471 26.8982 50.8768 26.9357C50.8938 26.9607 50.9108 26.9774 50.9236 26.9941C51.1064 27.215 51.3445 27.3234 51.6294 27.3234H51.6421C51.9015 27.3234 52.1523 27.3068 52.3436 27.2859C52.5732 27.2734 52.6838 27.3318 52.7645 27.5194C52.8241 27.6653 52.7773 27.8154 52.6285 27.9404L52.6327 27.9446Z" fill="#F4D13D"/>
<path d="M49.4354 28.7038C49.4354 28.7038 49.4269 28.7122 49.4226 28.7163C49.3163 28.8664 48.9762 28.9873 48.7254 29.0415C48.7211 29.0415 48.7126 29.0457 48.6998 29.0457C48.6106 29.0832 48.5043 29.0999 48.347 29.0999C47.8453 29.1749 47.722 29.1082 47.7177 29.1082C47.7092 29.0957 47.6922 29.0832 47.6752 29.079C47.6497 29.0749 47.6157 29.0623 47.5519 29.0373C47.2755 28.9206 47.0034 28.8039 46.7313 28.6871C46.6123 28.6413 46.5825 28.5913 46.5825 28.5787C46.608 28.1702 47.0204 27.6449 47.4499 27.6366L47.7347 27.6282C47.909 27.6199 48.0748 27.6157 48.2449 27.6116C48.347 27.6074 48.4617 27.6157 48.5553 27.6616C48.6276 27.6949 48.6871 27.7033 48.7424 27.6783C48.8061 27.6532 48.8529 27.6032 48.8912 27.5157L48.9039 27.4781C48.9167 27.4406 48.9337 27.3989 48.9507 27.3614C48.9549 27.3489 48.9592 27.3489 48.9634 27.3531C48.9592 27.449 48.9804 27.524 49.0357 27.574C49.0825 27.6282 49.159 27.6532 49.2568 27.6491C49.1845 27.9492 49.2866 28.2202 49.3759 28.462C49.3929 28.512 49.4099 28.5704 49.4184 28.6288L49.4269 28.6788L49.4311 28.6955L49.4354 28.7038Z" fill="#FFE888"/>
<path d="M49.6395 26.3138C49.3121 26.664 48.9252 26.8933 48.4958 26.9975C48.415 27.0225 48.33 27.0225 48.2364 27.0267C48.1939 27.0267 48.1472 27.0267 48.1089 27.0308C47.9091 27.0308 47.6412 27.0142 47.3904 26.8766C46.9652 26.6348 46.8844 25.9928 47.1055 25.6051C47.2246 25.3924 47.3734 25.2549 47.5689 25.184C47.7858 25.1048 48.0196 25.0548 48.2662 25.0381H48.3045C48.4533 25.0381 48.5808 25.1006 48.6574 25.2257C48.8104 25.48 49.0358 25.6176 49.3631 25.6593C49.5417 25.6759 49.6778 25.776 49.733 25.9177C49.784 26.0553 49.7458 26.2012 49.6352 26.3221L49.6395 26.3138Z" fill="#F4D13D"/>
<path d="M51.5359 24.4343C51.2936 24.722 50.9747 24.9012 50.6346 25.093L50.6048 25.1097C50.3242 25.1722 50.0989 25.1556 50.0904 25.1556C49.78 25.1639 49.5334 25.1055 49.3123 24.9805C49.1252 24.8804 48.9807 24.6178 48.9552 24.3426C48.9424 24.1925 48.9594 23.9049 49.2188 23.7006C49.3506 23.5922 49.4739 23.5213 49.5929 23.4713L49.6737 23.4338C49.6737 23.4338 49.848 23.3379 50.1329 23.3379C50.1499 23.3379 50.1711 23.3421 50.1882 23.3421C50.32 23.3587 50.4518 23.3671 50.575 23.3712C50.6728 23.3754 50.7749 23.3754 50.8769 23.3837C50.9364 23.3921 50.9832 23.3963 51.0087 23.4004C51.013 23.4046 51.0215 23.4088 51.0342 23.4088C51.0725 23.4171 51.2 23.4588 51.3531 23.5964C51.5317 23.759 51.5529 23.8173 51.5784 23.8799C51.5784 23.8882 51.5827 23.8965 51.5869 23.9049C51.723 24.0716 51.7102 24.2217 51.5359 24.4343Z" fill="#F4D13D"/>
<path d="M62.8406 25.9231C62.7938 25.7605 62.696 25.6563 62.5387 25.6021C62.3899 25.5521 62.2454 25.5062 62.1051 25.4395C61.6119 25.2102 61.0719 24.9851 60.4937 24.8809C60.111 24.81 59.7156 24.7475 59.3372 24.6891C58.9673 24.6307 58.5805 24.5724 58.2063 24.5057C57.6323 24.4014 57.0201 24.3598 56.3951 24.3806C56.7352 24.1638 56.9436 23.8428 57.1009 23.5593C57.1519 23.4718 57.1987 23.3801 57.2454 23.2925C57.2964 23.1966 57.3475 23.1007 57.4027 23.009C57.6281 22.613 57.5983 22.2669 57.3007 21.9293C57.1817 21.7917 57.0414 21.7458 56.867 21.7833C56.4546 21.8667 56.038 22.0001 55.5065 22.2044C55.3364 22.2711 55.1621 22.3295 54.9921 22.3795C54.6604 22.4879 54.316 22.5963 53.9972 22.7964C54.0014 22.7881 54.0014 22.7797 54.0057 22.7756L54.0184 22.7464C54.112 22.5046 54.2055 22.2669 54.299 22.0251C54.4819 21.5666 54.6689 21.0913 54.839 20.616C54.9708 20.2492 55.0941 19.874 55.2131 19.5113C55.362 19.0652 55.5108 18.6024 55.6766 18.1564C55.8721 17.6311 55.8254 17.1558 55.5363 16.7097C55.464 16.6013 55.3577 16.4346 55.1451 16.4137C54.6944 16.3762 54.3373 16.5096 54.095 16.8181L54.0269 16.9015C53.7888 17.2017 53.5422 17.5102 53.2786 17.7978C53.015 18.0855 52.7259 18.3648 52.4496 18.6358C52.1775 18.8943 51.9011 19.1652 51.6418 19.4446C51.6333 19.4529 51.6248 19.4612 51.6163 19.4696C51.612 19.4696 51.612 19.4738 51.6078 19.4738C51.5482 19.2903 51.4845 19.1111 51.4207 18.9318C51.3654 18.7775 51.3101 18.6233 51.2591 18.469C51.1528 18.1647 50.9913 17.8854 50.7787 17.6436C50.5236 17.3559 50.2302 17.3142 49.9028 17.5143C49.4224 17.8103 49.0695 18.2648 48.8272 18.9068C48.5976 19.5071 48.5976 20.1324 48.6103 20.7244C48.6146 20.8036 48.6146 20.8787 48.6146 20.9579C48.5933 20.912 48.5763 20.8662 48.5551 20.8203C48.4445 20.5535 48.3255 20.2742 48.1427 20.0324C48.0279 19.8865 47.9131 19.7447 47.794 19.5988C47.6325 19.3987 47.4667 19.1944 47.3093 18.986C46.8289 18.3231 46.2507 17.6853 45.4386 16.914C45.0475 16.5472 44.6223 16.1719 44.0568 15.6967C43.9931 15.6467 43.9335 15.5925 43.874 15.5424C43.6997 15.3924 43.5211 15.2381 43.3298 15.1047C43.2575 15.0588 43.0492 14.9171 42.8536 15.0672C42.5603 15.2965 42.4114 15.5508 42.3944 15.8426C42.3774 16.1469 42.4157 16.4554 42.454 16.7181C42.5092 17.0808 42.607 17.4268 42.7346 17.8395C42.8409 18.1814 42.9599 18.5441 43.1385 18.8859C43.283 19.1486 43.4361 19.4362 43.5381 19.7447C43.6359 20.0449 43.7762 20.3576 43.9761 20.7328C44.2184 21.1872 44.499 21.6249 44.7711 22.0502C44.8902 22.2378 45.0092 22.4212 45.1282 22.613C45.2175 22.7505 45.3068 22.9048 45.3918 23.0757C45.3621 23.059 45.3323 23.0424 45.2983 23.0299C44.5543 22.7005 43.8655 22.4921 43.1937 22.392C43.1512 22.3837 43.1045 22.3795 43.0577 22.3753L42.9684 22.3628C42.2541 22.2544 41.6036 22.2795 40.9786 22.4295C40.8766 22.4545 40.7873 22.5046 40.7065 22.5754C40.4812 22.7756 40.4429 23.2341 40.63 23.5343C40.8298 23.8595 41.1232 24.1013 41.4038 24.3306L41.4506 24.3681C41.5016 24.414 41.5569 24.4598 41.6079 24.5057C41.8035 24.6724 42.0075 24.8392 42.2286 24.9893C42.0543 24.9559 41.8842 24.9392 41.7099 24.9392C41.0637 24.9392 40.5322 25.2269 40.1283 25.798C40.022 25.9481 39.9795 26.1107 40.0093 26.2608C40.039 26.4192 40.1453 26.561 40.3154 26.6735C40.4089 26.7361 40.5152 26.7861 40.6215 26.8361C40.8724 26.9528 41.1274 27.0612 41.374 27.1488C41.6121 27.2363 41.8162 27.3781 42.0288 27.5282C42.0926 27.574 42.1606 27.6199 42.2244 27.6616C42.5007 27.845 42.7856 27.945 43.0917 27.9659C43.1342 27.9659 43.1767 27.9701 43.2193 27.9742C43.2958 27.9784 43.3723 27.9867 43.4446 27.9867C43.4276 27.9992 43.4148 28.0118 43.3978 28.0243C43.3383 28.0618 43.2788 28.1035 43.2235 28.1452C42.7303 28.5245 42.2499 28.9789 41.6674 29.6251C41.1317 30.2213 40.7235 30.8842 40.4599 31.5929C40.1666 32.385 40.1156 33.0979 40.3069 33.7649C40.4599 34.2985 40.5662 34.557 41.3358 34.6029C41.7907 34.6279 42.0671 34.4778 42.2371 34.1151C42.3349 33.9025 42.4965 33.7149 42.7261 33.5398C42.9514 33.373 43.164 33.1604 43.3596 32.9103C43.7635 32.385 44.3162 31.7096 44.9837 31.1385C45.0135 31.1134 45.0475 31.0884 45.0815 31.0676C45.0942 31.0593 45.1112 31.0467 45.124 31.0384L45.0985 31.1301C45.0517 31.2844 45.005 31.4428 44.9667 31.6012C44.8094 32.2391 44.7073 32.9144 44.6691 33.6148C44.6223 34.4653 44.6351 35.1698 44.7073 35.8369C44.7413 36.1245 44.8136 36.4956 45.0645 36.8124L45.0815 36.8332C45.141 36.9083 45.2175 37 45.3451 37H45.3621C45.6172 36.9792 45.9446 36.925 46.1912 36.654C46.2549 36.5831 46.3187 36.5122 46.3782 36.4414C46.442 36.3705 46.5015 36.2996 46.5653 36.2329L46.7014 36.0828C46.9947 35.7577 47.2966 35.42 47.5347 35.0406C47.5474 35.0198 47.5559 35.0114 47.5559 35.0072C47.5602 35.0114 47.5687 35.0198 47.5772 35.0364C47.607 35.0865 47.6452 35.1281 47.6835 35.1698L47.7047 35.1948C47.7643 35.2574 47.8195 35.2866 47.8833 35.2907C47.9386 35.2949 47.9981 35.2657 48.0534 35.2157C48.1172 35.1573 48.1809 35.1031 48.2447 35.0489C48.4955 34.828 48.7549 34.6029 48.9165 34.2818C48.942 34.236 48.976 34.1901 49.0228 34.1443C49.0355 34.1276 49.3161 33.7566 49.4267 33.5481L49.4352 33.5356C49.4352 33.5356 49.4437 33.5148 49.4479 33.5106C49.6095 33.1646 49.703 32.8477 49.737 32.5476C49.7413 32.5059 49.754 32.4725 49.788 32.4308C49.8178 32.3975 49.8603 32.3475 49.8943 32.3391C49.9454 32.4475 50.2982 33.1646 50.5278 33.4481C50.5406 33.4647 50.5533 33.4814 50.5661 33.4981L50.5959 33.5314C50.7447 33.7232 50.8977 33.9191 51.0635 34.1026C51.5482 34.632 52.0754 35.1907 52.7089 35.6451C53.2659 36.0453 53.8186 36.2996 54.3968 36.4163C54.7667 36.4956 55.1069 36.2162 55.1791 35.9202C55.2344 35.6868 55.1919 35.47 55.1366 35.249C55.0856 35.0489 55.0388 34.8488 54.9921 34.6445C54.9155 34.3277 54.839 33.9984 54.754 33.6773C54.5754 33.0187 54.3416 32.2557 53.9206 31.5512L53.9589 31.5637C54.0184 31.5887 54.078 31.6096 54.1417 31.6346L54.2905 31.6888C54.5967 31.8055 54.9113 31.9222 55.2344 32.0056C55.8381 32.1557 56.4334 32.1432 57.0966 32.1098C57.5005 32.0932 57.8534 31.9514 58.1468 31.6888C58.2488 31.6012 58.2743 31.5012 58.2233 31.3761C58.185 31.2802 58.1213 31.2093 58.0532 31.1426L58.0192 31.1009C57.9129 30.9884 57.8109 30.8758 57.7046 30.7633C57.492 30.5381 57.2709 30.3088 57.0796 30.0629C57.0243 29.9878 56.9648 29.917 56.9096 29.8419C56.6757 29.5376 56.4334 29.2249 56.1528 28.9456C56.0762 28.8706 56.0125 28.783 55.9444 28.6913L55.8934 28.6246C55.8934 28.6246 55.8892 28.6162 55.8849 28.6162H55.8934C56.2888 28.6579 56.6842 28.6413 57.0966 28.5621C57.7344 28.4453 58.3679 28.3494 58.9844 28.2619C59.1417 28.2369 59.2947 28.216 59.452 28.1952C59.7794 28.1493 60.1195 28.1035 60.4512 28.0368C60.6042 28.0076 60.7445 27.9492 60.8848 27.8867C61.1654 27.7574 61.4035 27.6616 61.6416 27.5907C61.9222 27.499 62.2794 27.3572 62.5345 27.0487C62.8448 26.6777 62.9469 26.3108 62.8406 25.9231ZM55.0899 22.8589L55.1791 22.8298C55.3279 22.7756 55.4725 22.7255 55.6171 22.6755C55.9742 22.5546 56.3483 22.4254 56.7055 22.2753C56.7778 22.2419 56.8458 22.2419 56.8968 22.2753C56.9606 22.317 56.9988 22.4129 56.9988 22.5296C56.9988 22.6296 56.9223 22.7547 56.8713 22.8381C56.6417 23.2258 56.3696 23.676 56.0592 24.0888C55.9189 24.2847 55.7233 24.414 55.4767 24.4765C55.3917 24.5015 55.3067 24.5223 55.2217 24.5432C54.958 24.6057 54.6902 24.6683 54.4393 24.7933C54.0227 25.0059 53.7208 25.2227 53.487 25.4812L53.4657 25.5062L53.4275 25.5437C53.3127 25.6605 53.3127 25.6646 53.1979 25.5646C52.8832 25.3061 52.6111 25.156 52.3263 25.0768C52.3305 25.0726 52.3348 25.0726 52.339 25.0685C52.4283 25.0018 52.5134 24.9351 52.6026 24.8684L52.7727 24.7433C52.93 24.6224 53.0661 24.4765 53.1936 24.3347C53.2744 24.2472 53.3594 24.1596 53.4445 24.0763C53.4955 24.0304 53.5508 23.9887 53.606 23.947C53.7208 23.8595 53.8356 23.7719 53.9079 23.6469C54.1672 23.1841 54.6179 23.0257 55.0899 22.8589ZM49.0185 26.1983C49.1801 26.2149 49.3034 26.3025 49.3544 26.4317C49.4011 26.5568 49.3671 26.6902 49.2651 26.7986C48.9675 27.1154 48.6188 27.3239 48.2277 27.4198C48.1554 27.4406 48.0789 27.4406 47.9939 27.4448C47.9556 27.4448 47.9131 27.4448 47.8791 27.4489C47.6962 27.4489 47.4539 27.4323 47.2286 27.3072C46.8417 27.0862 46.7694 26.5068 46.9692 26.1524C47.0755 25.9606 47.2116 25.8356 47.3901 25.7689C47.5857 25.698 47.7983 25.6521 48.0236 25.6355H48.0576C48.1937 25.6355 48.3085 25.6938 48.3765 25.8064C48.5168 26.0357 48.7209 26.1607 49.0185 26.1983ZM48.8867 24.4265C49.0057 24.3264 49.1163 24.2639 49.2268 24.218L49.2991 24.1847C49.2991 24.1847 49.4564 24.0971 49.7158 24.0971C49.7328 24.0971 49.7498 24.1013 49.7668 24.1013C49.8858 24.118 50.0049 24.1221 50.1197 24.1263C50.209 24.1263 50.3025 24.1263 50.3918 24.1388C50.4471 24.1471 50.4896 24.1513 50.5108 24.1555C50.5108 24.1555 50.5236 24.1638 50.5321 24.1638C50.5661 24.1722 50.6809 24.2097 50.8212 24.3347C50.9828 24.4807 51.004 24.5349 51.0253 24.5932C51.0253 24.6016 51.0295 24.6099 51.0338 24.6141C51.1571 24.7641 51.1443 24.9017 50.987 25.0935C50.7659 25.3561 50.4768 25.5187 50.1707 25.6896L50.1452 25.7063C49.8901 25.7647 49.686 25.748 49.6775 25.748C49.3969 25.7564 49.1716 25.7022 48.9717 25.5896C48.8017 25.4979 48.6699 25.2602 48.6486 25.0101C48.6358 24.8725 48.6529 24.6141 48.8867 24.4265ZM49.6265 26.9237C49.737 26.7027 49.771 26.5068 49.737 26.3067C49.7328 26.2858 49.7328 26.2775 49.7285 26.2733H49.7668C49.7923 26.2733 49.8221 26.2775 49.8476 26.2691C50.0134 26.2691 50.0389 26.2858 50.0857 26.4276C50.1197 26.5234 50.1452 26.6235 50.1664 26.7235L50.1877 26.8153C50.1962 26.8403 50.192 26.8611 50.1537 26.8778L50.1154 26.8945C50.0474 26.9278 49.9794 26.9612 49.9113 26.9779C49.6945 27.0321 49.5117 27.1446 49.3459 27.3155L49.3246 27.3364C49.2736 27.3906 49.2268 27.4406 49.1631 27.4656C49.3714 27.3155 49.5287 27.1321 49.6265 26.9237ZM49.4989 28.0201C49.6137 27.6616 49.8306 27.4406 50.1622 27.3531C50.2005 27.3406 50.2345 27.3197 50.26 27.303C50.2727 27.2905 50.2982 27.2738 50.3067 27.2738C50.3365 27.2905 50.362 27.328 50.3875 27.3614C50.4045 27.3822 50.4173 27.3989 50.43 27.4156C50.5959 27.6157 50.8127 27.7158 51.072 27.7158H51.0848C51.3186 27.7158 51.5482 27.6991 51.7225 27.6824C51.9309 27.6699 52.0329 27.7241 52.1052 27.895C52.1605 28.0284 52.118 28.1618 51.9819 28.2786C51.8671 28.3703 51.7396 28.487 51.629 28.6329C51.544 28.7497 51.4164 28.7913 51.2889 28.8205C51.2804 28.8205 51.2761 28.8247 51.2719 28.8247L50.8637 28.9414C50.8382 28.9539 50.7957 28.9623 50.7362 28.9789H50.7192C50.3748 29.0748 50.0899 29.0373 49.8136 28.8622C49.4989 28.6663 49.3926 28.3745 49.4989 28.0201ZM50.868 27.1154C50.6681 27.0154 50.6129 26.6443 50.5916 26.5026V26.4567C50.5661 26.34 50.4938 26.094 50.4896 26.0899C50.4896 26.0815 50.4896 26.0774 50.4896 26.0732C50.4981 26.0523 50.5448 26.019 50.5661 26.0023L50.5916 25.9773C50.7914 25.798 51.038 25.6146 51.3697 25.5688C51.4845 25.5521 51.595 25.5104 51.697 25.4729C51.7481 25.452 51.7991 25.4353 51.8501 25.4187C51.9351 25.3895 52.0074 25.3895 52.0669 25.4103C52.3816 25.5271 52.7344 25.6855 53.0023 25.9815C53.1001 26.0899 53.1468 26.2024 53.1383 26.3108C53.1298 26.4234 53.0661 26.5276 52.947 26.6277C52.9002 26.6652 52.8492 26.7027 52.8025 26.7361C52.7599 26.7694 52.7217 26.8028 52.6792 26.8361C52.5176 26.9612 52.3475 27.0404 52.169 27.0696C51.4845 27.1863 51.0465 27.203 50.8722 27.1154H50.868ZM52.3603 28.2369C52.373 28.1827 52.3943 28.1243 52.4241 28.0701C52.4751 27.9826 52.5304 27.87 52.5304 27.7324C52.5304 27.6657 52.5176 27.5949 52.4836 27.5198C52.5984 27.4364 52.7089 27.3572 52.8195 27.2697C52.8662 27.2363 52.9173 27.2238 52.9683 27.2405C53.0448 27.2572 53.1001 27.3072 53.1256 27.3864C53.1256 27.3864 53.1681 27.4656 53.1724 27.6074C53.1724 27.7491 53.1341 27.8575 53.0576 27.9242C53.0491 27.9284 53.0448 27.9325 53.0363 27.9367C53.0363 27.9367 53.0235 27.9492 53.015 27.9534C52.9683 27.9867 52.9215 28.0243 52.8747 28.0576C52.7557 28.1535 52.6367 28.241 52.4921 28.2702L52.4028 28.2827C52.3688 28.2911 52.3603 28.2786 52.3603 28.2786C52.3603 28.2786 52.3518 28.2702 52.3603 28.2369ZM51.3612 20.4826C51.3612 20.4826 51.3824 20.466 51.3867 20.4576L51.8246 19.924L51.9011 19.849L52.4793 19.3028C52.5984 19.1736 52.7259 19.0527 52.8535 18.936C52.9938 18.8109 53.1341 18.6775 53.2616 18.5357C53.4232 18.3565 53.589 18.1814 53.7548 18.0105C53.8229 17.9396 53.8909 17.8645 53.9589 17.7937C54.1205 17.6227 54.248 17.4393 54.3458 17.2517C54.4479 17.0516 54.7752 16.864 55.0091 16.8765C55.0431 16.8807 55.0643 16.8932 55.0899 16.9349C55.2302 17.1475 55.2982 17.3518 55.2982 17.5644C55.2982 17.7103 55.2684 17.8479 55.2089 17.9771C54.9495 18.5733 54.7582 19.2028 54.5754 19.8114C54.5371 19.9323 54.4989 20.0532 54.4649 20.1741C54.18 21.0955 53.8229 22.1794 53.3467 23.2008C53.1596 23.6093 52.9768 23.972 52.6707 24.2639C52.5601 24.3723 52.4326 24.4932 52.288 24.5807C52.0882 24.6974 51.8884 24.8392 51.697 25.0059C51.6035 25.0852 51.493 25.1018 51.3697 25.1185C51.3824 25.0726 51.3994 25.031 51.4207 24.9893C51.578 24.6141 51.51 24.3556 51.1868 24.1013C50.9828 23.9429 50.7617 23.7803 50.4683 23.7469C50.3833 23.7344 50.3195 23.6719 50.2642 23.5426C50.1282 23.23 50.0942 22.909 50.1622 22.5963C50.3067 21.9418 50.6171 21.3456 51.0763 20.8245C51.1443 20.7536 51.2038 20.6744 51.2506 20.5952C51.2804 20.5452 51.3186 20.5035 51.3612 20.4826ZM48.9717 20.6536C48.9717 20.5535 48.9802 20.4535 48.9802 20.3534C48.9887 20.2992 49.027 20.0366 49.0695 19.7989L49.0908 19.6697C49.1716 19.232 49.2523 18.8192 49.5372 18.4732C49.7158 18.2564 49.9326 18.0855 50.1834 17.9688C50.2642 17.9271 50.3918 17.8979 50.5448 18.073C50.6511 18.1981 50.7404 18.344 50.8042 18.5149C50.9147 18.8067 51.021 19.0985 51.1273 19.3945L51.2166 19.6488C51.2719 19.7906 51.2506 19.8906 51.1528 19.9949C50.8595 20.3159 50.4938 20.7161 50.226 21.1622C49.8816 21.7417 49.6903 22.2461 49.6265 22.7464C49.5797 23.1049 49.6307 23.4384 49.7838 23.7261C49.788 23.7386 49.7966 23.7511 49.7966 23.7594H49.771C49.7115 23.7553 49.6562 23.7636 49.5925 23.7678C49.567 23.7719 49.5414 23.7719 49.4989 23.7803C49.4692 23.7844 49.4607 23.7844 49.4607 23.7844C49.4607 23.7844 49.4522 23.7678 49.4522 23.7219C49.4522 23.3801 49.3926 23.0465 49.2693 22.7005C49.0908 22.2044 49.0228 21.6791 48.976 21.2289C48.959 21.0413 48.9675 20.8412 48.976 20.6536H48.9717ZM41.4506 23.6469C41.3188 23.5343 41.1955 23.4009 41.0892 23.2508C41.0297 23.1758 41.0084 23.1132 41.0254 23.0632C41.0382 23.0132 41.0934 22.9673 41.187 22.9256C41.5739 22.7714 41.9905 22.6838 42.4327 22.6755C42.4625 22.6755 42.488 22.6713 42.5135 22.6713C42.9769 22.6713 43.4658 22.7714 44.0313 22.9715C44.1249 23.0048 44.2141 23.0382 44.3034 23.0674C44.5458 23.1508 44.7966 23.2341 45.0305 23.355C45.3451 23.5093 45.6299 23.7219 45.902 23.9262C45.9616 23.972 46.0168 24.0137 46.0764 24.0554C46.1316 24.0971 46.1912 24.143 46.2464 24.1847C46.3655 24.2764 46.4888 24.3681 46.6163 24.4515C46.8629 24.6182 47.1265 24.7058 47.4071 24.7141H47.5687C47.6877 24.7225 47.811 24.7225 47.9343 24.7225C48.0066 24.7225 48.0704 24.6891 48.1001 24.6349C48.1299 24.5849 48.1257 24.514 48.0831 24.4473C48.0194 24.3431 47.9216 24.2805 47.8068 24.2764C47.152 24.2389 46.7184 23.847 46.3442 23.4301C46.0679 23.1257 45.8638 22.7672 45.664 22.417L45.6299 22.3587C45.3748 21.9126 45.0857 21.4707 44.8094 21.0454C44.7243 20.9162 44.6393 20.787 44.5543 20.6536C44.4395 20.4743 44.3502 20.295 44.2907 20.1199C44.1631 19.7281 43.9888 19.3487 43.8187 18.986C43.755 18.8526 43.6912 18.715 43.6317 18.5816C43.5254 18.344 43.4361 18.098 43.3511 17.8562L43.2745 17.6311C43.181 17.3768 43.1215 17.1225 43.0577 16.8348C42.9854 16.5221 42.9557 16.1886 42.9642 15.8134C42.9642 15.7384 42.9769 15.6758 43.0024 15.6175C43.0279 15.5549 43.0492 15.5424 43.0619 15.5383C43.0704 15.5383 43.0917 15.5383 43.147 15.5716C43.3 15.6675 43.4488 15.7884 43.5892 15.901C43.6402 15.9427 43.6912 15.9843 43.738 16.026C44.6393 16.7473 45.2983 17.3351 45.868 17.9437C46.3527 18.4524 46.8332 19.0235 47.3944 19.7364C48.0109 20.5285 48.3595 21.4206 48.6231 22.1919C48.6571 22.292 48.6911 22.392 48.7294 22.4879C48.8229 22.738 48.9207 22.9965 48.959 23.2633C48.976 23.3967 48.993 23.5385 48.9845 23.6844C48.9717 23.9137 48.8654 24.0804 48.6741 24.1763C48.2362 24.4014 48.2107 24.7975 48.2319 25.0726V25.0977C48.2362 25.1393 48.2404 25.181 48.2362 25.1894C48.2277 25.1977 48.1724 25.2102 48.1299 25.2144C47.6537 25.2978 47.2796 25.427 46.9565 25.6271C46.8799 25.6688 46.8289 25.7188 46.7864 25.7772C46.6971 25.9106 46.5611 25.9815 46.374 25.9898C46.0296 26.0065 45.7192 25.9773 45.4301 25.8939C45.3068 25.8564 45.1878 25.8231 45.0645 25.7897C44.8094 25.7188 44.5458 25.6438 44.2907 25.5604C43.8485 25.4103 43.4106 25.1644 42.9429 24.81L42.6793 24.6141C42.2711 24.3056 41.846 23.9846 41.4506 23.6469ZM43.13 27.4698C42.7601 27.4615 42.4837 27.2447 42.2541 27.0446C42.2541 27.0446 42.2456 27.0362 42.2414 27.0362C42.1181 26.9112 41.778 26.7652 41.5058 26.6568C41.5016 26.6568 41.4931 26.6527 41.4888 26.6527C41.3783 26.6277 41.272 26.5943 41.1657 26.5443C41.0127 26.4692 40.8426 26.3984 40.647 26.3275C40.5875 26.3067 40.5492 26.2816 40.5407 26.2566C40.528 26.2316 40.5407 26.1858 40.5705 26.1274C40.6853 25.9023 40.8766 25.7272 41.1912 25.5604C41.3783 25.4645 41.5909 25.4103 41.778 25.4103H41.829C42.0501 25.4103 42.1989 25.4395 42.3264 25.5146C42.5773 25.6563 42.8536 25.7147 43.1215 25.7647L43.2022 25.7814C43.4021 25.8231 43.5934 25.9064 43.7762 25.9856C43.8315 26.0107 43.891 26.0357 43.9463 26.0565C44.6393 26.3483 45.3876 26.5109 46.1699 26.5443H46.2082C46.2082 26.5443 46.2379 26.5443 46.2464 26.5485C46.2804 26.5568 46.3145 26.5526 46.3485 26.5485C46.408 26.5443 46.4122 26.5485 46.4207 26.5735C46.4633 26.6819 46.4207 26.8278 46.3442 26.8903C46.2592 26.957 46.1529 26.9695 46.0381 26.982H46.0041C45.7702 27.0154 45.5747 27.0654 45.4003 27.1321C45.1623 27.228 44.9242 27.3197 44.6861 27.4114C44.499 27.4823 44.3162 27.5573 44.1291 27.6282C44.0866 27.6449 44.0653 27.6491 44.0441 27.6407C43.7465 27.5073 43.4276 27.4781 43.13 27.4698ZM44.7839 30.5923C44.1419 31.1218 43.5977 31.7471 43.147 32.2849C42.8621 32.6351 42.5432 32.9561 42.2414 33.2479C42.0075 33.4731 41.8247 33.6982 41.6887 33.9317C41.6079 34.0651 41.5058 34.1234 41.3613 34.1068C40.9659 34.0692 40.8766 34.0275 40.7916 33.6607C40.7405 33.4272 40.7278 33.1896 40.7235 32.9061C40.7065 32.5309 40.8426 32.114 40.9659 31.793C41.289 30.9258 41.8545 30.1254 42.6835 29.3375C43.3808 28.6788 44.0781 28.2035 44.8179 27.8742C45.3111 27.6574 45.7362 27.5448 46.1529 27.5198C46.1954 27.5198 46.2464 27.5198 46.2932 27.4948C46.3357 27.474 46.374 27.4656 46.4165 27.4656C46.4973 27.4656 46.5781 27.5073 46.6843 27.6032C46.7396 27.6532 46.8034 27.7074 46.8034 27.7283C46.8034 27.7491 46.7354 27.8158 46.6843 27.8617C46.4973 28.0409 46.34 28.241 46.2209 28.4537C45.9743 28.8956 46.0168 29.2207 46.3655 29.5751C46.3867 29.596 46.391 29.6043 46.3952 29.6085C46.391 29.6085 46.3867 29.6168 46.3655 29.6335C46.3102 29.671 46.2464 29.7043 46.1656 29.7335C45.6214 29.9295 45.1665 30.2797 44.7839 30.5923ZM47.0585 34.8572C46.9905 34.9364 46.9267 35.0239 46.8672 35.1073C46.8374 35.149 46.8076 35.1907 46.7736 35.2324C46.4718 35.6284 46.1571 35.9869 45.834 36.308C45.7915 36.3496 45.7405 36.3913 45.6767 36.4372C45.5577 36.5164 45.5194 36.5122 45.4344 36.3997C45.3238 36.2579 45.2558 36.087 45.226 35.8786C45.1878 35.6368 45.1793 35.3866 45.1665 35.1448C45.158 34.9697 45.1495 34.7946 45.1325 34.6195C45.1027 34.2068 45.1155 33.7816 45.1708 33.3522C45.1878 33.2063 45.2048 33.0603 45.2218 32.9103C45.2685 32.4642 45.3196 32.0014 45.4471 31.5595C45.5747 31.126 45.732 30.8008 45.9531 30.5381C46.0551 30.4089 46.1656 30.3297 46.2932 30.288C46.5355 30.213 46.7184 30.0629 46.8884 29.917C46.9607 29.8503 47.0245 29.8211 47.0925 29.8211C47.1138 29.8211 47.135 29.8252 47.1605 29.8336C47.2286 29.8503 47.2371 29.8794 47.2286 29.9253C47.2243 29.9503 47.2201 29.9753 47.2158 30.0003C47.2116 30.042 47.203 30.0837 47.1903 30.1254C47.0883 30.4756 47.05 30.83 47.0245 31.2552C46.999 31.7221 46.9862 32.1057 46.9862 32.4642C46.9905 33.0145 47.067 33.5356 47.2116 34.015C47.3178 34.3569 47.2711 34.6154 47.0585 34.8572ZM47.3731 29.2749C47.1223 29.1707 46.8757 29.0623 46.6291 28.9581C46.5228 28.9164 46.493 28.8706 46.493 28.858C46.5143 28.487 46.8884 28.0118 47.2796 28.0034L47.5389 27.9951C47.6962 27.9867 47.8493 27.9826 48.0024 27.9784C48.0959 27.9742 48.1979 27.9826 48.283 28.0243C48.3467 28.0534 48.402 28.0618 48.453 28.0409C48.5126 28.0201 48.5551 27.9742 48.5891 27.895L48.6018 27.8617C48.6146 27.8283 48.6273 27.7908 48.6444 27.7574C48.6486 27.7449 48.6529 27.7449 48.6571 27.7491C48.6571 27.8367 48.6741 27.9034 48.7209 27.9492C48.7634 27.9992 48.8314 28.0201 48.9207 28.0159C48.8569 28.2869 48.9462 28.5329 49.027 28.7538C49.044 28.7997 49.0568 28.8539 49.0653 28.9039L49.0738 28.9498L49.078 28.9664C49.0738 28.9706 49.0695 28.9748 49.0653 28.9789C48.9675 29.1165 48.6614 29.2249 48.4318 29.2749C48.4275 29.2749 48.419 29.2791 48.4105 29.2791C48.3297 29.3125 48.2319 29.3291 48.0916 29.3291C47.6367 29.3958 47.5262 29.3375 47.5219 29.3375C47.5134 29.325 47.5007 29.3166 47.4837 29.3125C47.4624 29.3083 47.4284 29.2958 47.3731 29.2749ZM49.2183 32.7602C48.9505 33.4314 48.5678 34.0275 48.0746 34.532C48.0704 34.532 48.0619 34.5445 48.0619 34.5445C48.0449 34.557 48.0321 34.5737 48.0151 34.5862C47.9981 34.607 47.9598 34.6404 47.9513 34.6445C47.9301 34.632 47.9173 34.6154 47.9088 34.5945C47.9088 34.582 47.9088 34.5862 47.9003 34.5778C47.8195 34.4111 47.7175 33.9775 47.6835 33.8441C47.5474 33.2855 47.4837 32.7185 47.5007 32.1599C47.5049 32.0223 47.5049 31.8847 47.5049 31.7471C47.5049 31.522 47.5049 31.2927 47.5219 31.0676C47.5517 30.6882 47.6537 30.3172 47.743 30.0379C47.7855 29.9086 47.8365 29.8794 48.0236 29.8794H48.0831C48.1724 29.8878 48.2702 29.8919 48.283 29.9045C48.2915 29.917 48.2872 29.9795 48.2872 30.0337C48.283 30.0629 48.283 30.0962 48.283 30.1296C48.266 30.7341 48.4998 31.2635 48.7464 31.7596C48.7506 31.7721 48.7591 31.7888 48.7676 31.8013C48.7889 31.8305 48.8059 31.8597 48.8144 31.893C48.8569 32.0348 48.959 32.1223 49.0398 32.1807C49.2651 32.3433 49.3161 32.51 49.2183 32.7602ZM49.9284 31.1802L49.8901 31.2635C49.8008 31.4636 49.7073 31.6679 49.567 31.843C49.5287 31.893 49.4819 31.9181 49.4394 31.9181H49.4309C49.3884 31.9139 49.3501 31.8847 49.3246 31.8347C49.0908 31.3803 48.8484 30.9092 48.7464 30.3881C48.6741 30.0003 48.7549 29.7335 49.0142 29.5292C49.061 29.4917 49.1035 29.4542 49.146 29.4167C49.1843 29.3792 49.2183 29.3458 49.2608 29.3125C49.2949 29.2875 49.3246 29.2749 49.3586 29.2749C49.3884 29.2749 49.4224 29.2874 49.4522 29.3166C49.567 29.4209 49.6945 29.4834 49.8603 29.5126C50.0219 29.5418 50.1154 29.6501 50.1409 29.8378C50.1494 29.9128 50.1579 29.9962 50.1622 30.0754C50.1664 30.1171 50.1707 30.1629 50.1707 30.2004C50.1877 30.5673 50.0602 30.9008 49.9284 31.1802ZM54.5882 34.9697L54.6052 35.0448C54.6604 35.2782 54.7115 35.495 54.737 35.7076C54.737 35.8077 54.7072 35.8827 54.6519 35.9244C54.6009 35.9578 54.5329 35.9619 54.4521 35.9369C54.2098 35.8577 53.9547 35.7702 53.64 35.6576C53.487 35.6034 53.3467 35.5159 53.1766 35.3741C53.0236 35.2407 52.862 35.1156 52.7047 34.9906C52.3901 34.7446 52.0669 34.4861 51.7948 34.1818C51.2974 33.6148 50.8595 33.0937 50.5193 32.485C50.4343 32.3266 50.3833 32.1557 50.328 31.9764C50.2982 31.8639 50.2642 31.7471 50.2175 31.6387C50.2047 31.5929 50.2302 31.5387 50.2472 31.5137C50.5406 31.0384 50.6511 30.4923 50.6044 29.7502C50.5916 29.5501 50.6171 29.5167 50.8255 29.4709C50.902 29.45 50.9828 29.4375 51.0635 29.4209C51.1231 29.4125 51.1868 29.4 51.2464 29.3875C51.3909 29.3583 51.5142 29.2874 51.6375 29.2166L51.6885 29.1916C51.6885 29.1916 51.7055 29.1791 51.7098 29.1791C51.7098 29.1791 51.7098 29.1818 51.7098 29.1874C51.8033 29.5709 52.0329 29.8794 52.2583 30.1754L52.2923 30.2255C52.4156 30.3839 52.5304 30.534 52.6239 30.7007C52.6579 30.7591 52.6962 30.8175 52.7599 30.855C53.1298 31.0718 53.3084 31.4261 53.4955 31.7972C53.9334 32.6685 54.2693 33.6482 54.5839 34.9697H54.5882ZM55.9614 29.3875C55.9614 29.3875 55.9614 29.3917 55.9699 29.3958C56.191 29.646 56.3951 29.917 56.5864 30.1838L56.7097 30.3464C57.0073 30.7549 57.2752 31.0718 57.543 31.3427C57.5983 31.3969 57.6153 31.4219 57.6153 31.4219C57.6068 31.4386 57.5303 31.472 57.5048 31.4845C57.2539 31.6096 56.9776 31.6387 56.6459 31.6429H56.6204C55.5788 31.6429 54.6732 31.4261 53.8484 30.9884C53.538 30.8216 53.1851 30.634 52.9002 30.363C52.8025 30.2672 52.7387 30.1504 52.6664 30.0295C52.6239 29.9628 52.5856 29.8919 52.5346 29.8252C52.4538 29.7127 52.3816 29.596 52.305 29.4792C52.2625 29.4125 52.22 29.35 52.1775 29.2833C52.1222 29.2041 52.0839 29.1082 52.0627 28.9998C52.0372 28.8539 52.0839 28.7747 52.22 28.7288C52.2923 28.7038 52.3645 28.6913 52.4283 28.6913C52.6792 28.6788 52.9173 28.5912 53.1724 28.4203C53.1851 28.412 53.1979 28.4036 53.2064 28.3953L53.2531 28.3494C53.2744 28.3328 53.3552 28.2911 53.6188 28.2911C53.6911 28.2911 53.7803 28.2952 53.8866 28.3036H53.9036C54.3586 28.3077 54.7327 28.3494 55.0813 28.5245C55.1749 28.5704 55.2599 28.6329 55.3449 28.6955C55.3875 28.7288 55.4342 28.7622 55.4853 28.7997L55.5065 28.8247C55.7701 29.1499 55.9232 29.3416 55.9614 29.3875ZM62.2751 26.5526C62.1306 26.7736 61.9307 26.9445 61.6799 27.0571C60.8721 27.4114 60.1493 27.6532 59.4648 27.795C59.1204 27.8658 58.7633 27.9075 58.4061 27.9159C57.9214 27.9325 57.458 28.0368 57.0286 28.1493C56.6545 28.2452 56.2803 28.2077 55.9614 28.1618C55.6086 28.116 55.2599 28.0243 54.9198 27.9409C54.7242 27.8909 54.5329 27.8408 54.3373 27.7991C54.2565 27.7825 54.1715 27.7658 54.0907 27.7491C53.9972 27.7283 53.8994 27.7074 53.8059 27.6866C53.6826 27.6574 53.623 27.5907 53.6188 27.4781C53.6145 27.2864 53.5805 27.0154 53.3169 26.8278C53.3127 26.8236 53.2999 26.8153 53.2999 26.8069C53.2957 26.7986 53.3042 26.7819 53.3169 26.7694C53.4785 26.5818 53.5082 26.3483 53.5167 26.1482C53.5167 26.0148 53.572 25.9231 53.6868 25.8439C53.7676 25.7897 53.8441 25.7313 53.9249 25.673C54.0354 25.5854 54.1502 25.4979 54.265 25.427C54.7285 25.1477 55.2514 25.0184 55.7063 24.9267C55.9657 24.8725 56.225 24.8475 56.4801 24.8434C56.748 24.8725 57.0201 24.885 57.2837 24.8934C57.7939 24.9142 58.3211 24.9351 58.8185 25.0935C59.0821 25.1727 59.35 25.1894 59.6093 25.2019C59.7284 25.2102 59.8517 25.2144 59.9707 25.2269C60.2216 25.2561 60.4767 25.3103 60.719 25.3603C60.8168 25.3811 60.9146 25.402 61.0081 25.4187C61.0422 25.427 61.0762 25.4395 61.1017 25.4604C61.395 25.6688 61.7139 25.7772 62.0498 25.8856C62.2156 25.9398 62.3261 26.0232 62.3687 26.1357C62.4112 26.2525 62.3772 26.3942 62.2751 26.5526Z" fill="#282828"/>
<path d="M56.9775 22.5166C56.9732 22.6167 56.9052 22.7417 56.8542 22.8251C56.6203 23.2128 56.3482 23.6631 56.0379 24.0758C55.8976 24.2718 55.702 24.401 55.4554 24.4635C55.3704 24.4885 55.2853 24.5094 55.2003 24.5302C54.941 24.5928 54.6688 24.6553 54.418 24.7804C54.0056 24.993 53.6995 25.2098 53.4656 25.4682L53.4444 25.4933C53.4444 25.4933 53.4231 25.5183 53.4061 25.5308C53.2913 25.6475 53.2913 25.6517 53.1765 25.5516C52.8619 25.2931 52.5898 25.1431 52.3049 25.0638C52.3049 25.0597 52.3134 25.0597 52.3177 25.0555C52.407 24.9888 52.4963 24.9221 52.5813 24.8554L52.7514 24.7303C52.9129 24.6094 53.0447 24.4635 53.1765 24.3218C53.253 24.2342 53.3381 24.1467 53.4231 24.0633C53.4741 24.0174 53.5294 23.9758 53.5847 23.9341C53.6995 23.8465 53.8185 23.759 53.8865 23.6339C54.1459 23.1711 54.5966 23.0127 55.0728 22.846L55.162 22.8168C55.3066 22.7626 55.4512 22.7126 55.5957 22.6625C55.9571 22.5416 56.327 22.4124 56.6841 22.2623C56.7564 22.229 56.8244 22.229 56.8755 22.2623C56.9392 22.304 56.9775 22.3999 56.9775 22.5166Z" fill="#EFEDE4"/>
<path d="M62.258 26.5393C62.1092 26.7603 61.9094 26.9312 61.6586 27.0438C60.855 27.3981 60.128 27.6399 59.4434 27.7817C59.0991 27.8526 58.7419 27.8943 58.3848 27.9026C57.9001 27.9193 57.4367 28.0235 57.0073 28.1361C56.6331 28.2319 56.259 28.1944 55.9401 28.1486C55.5872 28.1027 55.2386 28.011 54.8984 27.9276C54.7029 27.8776 54.5115 27.8276 54.316 27.7859C54.2352 27.7692 54.1544 27.7525 54.0694 27.7358C53.9758 27.715 53.878 27.6941 53.7845 27.6733C53.6612 27.6441 53.6017 27.5774 53.5974 27.4649C53.5932 27.2731 53.5592 27.0021 53.2956 26.8145C53.2956 26.8103 53.2786 26.802 53.2786 26.7937C53.2786 26.7853 53.2828 26.7686 53.2956 26.7561C53.4614 26.5685 53.4869 26.3351 53.4954 26.135C53.4997 26.0016 53.5549 25.9098 53.6655 25.8306C53.7462 25.7764 53.827 25.7181 53.9036 25.6597C54.0141 25.5722 54.1289 25.4846 54.2479 25.4137C54.7071 25.1344 55.2343 25.0052 55.685 24.9135C55.9443 24.8593 56.208 24.8342 56.4588 24.8301C56.7267 24.8593 56.9988 24.8718 57.2624 24.8801C57.7726 24.901 58.2998 24.9218 58.7972 25.0802C59.0651 25.1594 59.3287 25.1761 59.588 25.1886C59.7071 25.1969 59.8304 25.2011 59.9494 25.2136C60.2002 25.2428 60.4553 25.297 60.6977 25.347C60.7955 25.3679 60.8933 25.3887 60.9868 25.4054C61.0208 25.4137 61.0548 25.4262 61.0803 25.4471C61.3737 25.6555 61.6968 25.7639 62.0285 25.8723C62.1943 25.9265 62.3048 26.0099 62.3473 26.1225C62.3898 26.2392 62.3601 26.3809 62.258 26.5393Z" fill="white"/>
<path d="M57.5984 31.4092C57.5984 31.4092 57.5091 31.4592 57.4836 31.4717C57.2328 31.5968 56.9564 31.626 56.6248 31.6302H56.5993C55.5576 31.6302 54.652 31.4134 53.8272 30.9756C53.5168 30.8089 53.1639 30.6213 52.8791 30.3503C52.7813 30.2544 52.7175 30.1377 52.6452 30.0168C52.607 29.9501 52.5644 29.8792 52.5177 29.8125C52.4369 29.6999 52.3604 29.5832 52.2838 29.4665C52.2413 29.3998 52.1988 29.3372 52.1563 29.2705C52.101 29.1913 52.0628 29.0954 52.0457 28.987C52.0202 28.8411 52.067 28.7619 52.1988 28.7161C52.2711 28.691 52.3434 28.6785 52.4071 28.6785C52.658 28.666 52.8961 28.5785 53.1512 28.4076C53.1682 28.3992 53.1767 28.3909 53.1852 28.3825L53.1979 28.37L53.232 28.3367C53.232 28.3367 53.334 28.2783 53.5976 28.2783C53.6699 28.2783 53.7592 28.2825 53.8655 28.2908H53.8825C54.3374 28.295 54.7115 28.3367 55.0644 28.5118C55.158 28.5576 55.2387 28.6202 55.3238 28.6827C55.3705 28.7161 55.413 28.7494 55.4641 28.7869L55.4853 28.8119C55.7489 29.1371 55.902 29.3289 55.9403 29.3748C55.9445 29.3748 55.9445 29.3789 55.9488 29.3831C56.1698 29.6332 56.3739 29.9042 56.5652 30.171L56.6885 30.3336C56.9862 30.7422 57.254 31.059 57.5219 31.33C57.5771 31.3842 57.5941 31.4092 57.5984 31.4092Z" fill="#F4F4F4"/>
<path d="M54.7154 35.6946C54.7154 35.7946 54.6857 35.8697 54.6304 35.9114C54.5794 35.9447 54.5114 35.9489 54.4306 35.9239C54.1882 35.8447 53.9331 35.7571 53.6185 35.6446C53.4654 35.5904 53.3251 35.5028 53.1551 35.3611C53.002 35.2277 52.8405 35.1026 52.6874 34.9775C52.3685 34.7316 52.0454 34.4731 51.7733 34.1688C51.2759 33.6018 50.8379 33.0807 50.4978 32.472C50.4128 32.3136 50.3617 32.1426 50.3107 31.9634C50.2767 31.8508 50.2427 31.7341 50.2002 31.6257C50.1832 31.5798 50.2087 31.5256 50.2257 31.5006C50.5233 31.0254 50.6339 30.4792 50.5828 29.7372C50.5701 29.5371 50.5956 29.5037 50.8039 29.4578C50.8805 29.437 50.9612 29.4245 51.042 29.4078C51.1015 29.3995 51.1653 29.387 51.2248 29.3745C51.3694 29.3453 51.4969 29.2744 51.616 29.2035L51.667 29.1785C51.667 29.1785 51.684 29.166 51.6883 29.166C51.6883 29.1702 51.6925 29.1702 51.6925 29.1744C51.786 29.5579 52.0156 29.8664 52.241 30.1624L52.275 30.2124C52.3983 30.3708 52.5131 30.5209 52.6066 30.6877C52.6406 30.746 52.6789 30.8044 52.7427 30.8419C53.1126 31.0587 53.2911 31.4131 53.4782 31.7841C53.9204 32.6554 54.252 33.6351 54.5666 34.9567L54.5836 35.0317C54.6389 35.2652 54.6899 35.482 54.7154 35.6946Z" fill="#F4F4F4"/>
<path d="M50.1536 30.1872C50.1663 30.5541 50.0388 30.8876 49.907 31.1669L49.8687 31.2503C49.7794 31.4504 49.6859 31.6547 49.5456 31.8298C49.5116 31.8798 49.4648 31.9048 49.418 31.9048H49.4096C49.367 31.9007 49.3288 31.8715 49.3033 31.8215C49.0694 31.367 48.8271 30.8959 48.7293 30.3748C48.6528 29.9871 48.7335 29.7203 48.9929 29.516C49.0397 29.4785 49.0822 29.441 49.1247 29.4035C49.163 29.3659 49.2012 29.3326 49.2395 29.2992C49.2735 29.2742 49.3075 29.2617 49.3373 29.2617C49.3713 29.2617 49.401 29.2742 49.4308 29.3034C49.5456 29.4076 49.6774 29.4702 49.839 29.4993C50.0048 29.5285 50.0941 29.6369 50.1196 29.8245C50.1323 29.8996 50.1366 29.9829 50.1408 30.0622C50.1451 30.1038 50.1493 30.1497 50.1536 30.1872Z" fill="#EFEDE4"/>
<path d="M49.1969 32.747C48.9333 33.4182 48.5464 34.0143 48.0532 34.5188C48.049 34.5188 48.0405 34.5313 48.0405 34.5313C48.0235 34.5438 48.0107 34.5604 47.998 34.573C47.9767 34.5938 47.9427 34.6271 47.9342 34.6313C47.9087 34.6188 47.8959 34.6021 47.8917 34.5813C47.8874 34.5688 47.8917 34.573 47.8832 34.5646C47.7981 34.3979 47.6961 33.9643 47.6663 33.8309C47.526 33.2722 47.4622 32.7053 47.4793 32.1466C47.4835 32.009 47.4835 31.8715 47.4835 31.7339C47.4835 31.5088 47.4835 31.2795 47.5005 31.0544C47.5303 30.675 47.6366 30.304 47.7216 30.0246C47.7641 29.8954 47.8151 29.8662 48.0022 29.8662H48.0617C48.1553 29.8745 48.2488 29.8787 48.2616 29.8912C48.2701 29.9037 48.2658 29.9663 48.2658 30.0205C48.2616 30.0496 48.2616 30.083 48.2616 30.1163C48.2446 30.7208 48.4784 31.2503 48.725 31.7464C48.7335 31.7589 48.742 31.7756 48.7505 31.7881C48.7675 31.8173 48.7845 31.8465 48.793 31.8798C48.8355 32.0216 48.9376 32.1091 49.0226 32.1675C49.2479 32.3301 49.299 32.4968 49.1969 32.747Z" fill="white"/>
<path d="M47.0371 34.8447C46.9691 34.9239 46.9053 35.0114 46.8458 35.0948C46.8161 35.1365 46.7863 35.1782 46.7565 35.2199C46.4547 35.6159 46.1358 35.9745 45.8127 36.2955C45.7702 36.3372 45.7191 36.3789 45.6554 36.4247C45.5406 36.5039 45.498 36.4998 45.413 36.3872C45.3025 36.2454 45.2344 36.0745 45.2047 35.8661C45.1707 35.6243 45.1579 35.3741 45.1452 35.1323C45.1367 34.9572 45.1282 34.7821 45.1112 34.607C45.0856 34.1943 45.0941 33.7691 45.1494 33.3397C45.1664 33.1938 45.1834 33.0479 45.2004 32.8978C45.2472 32.4517 45.2982 31.989 45.4258 31.547C45.5533 31.1135 45.7106 30.7883 45.9317 30.5257C46.0338 30.3964 46.1443 30.3172 46.2718 30.2755C46.5142 30.2005 46.697 30.0504 46.8671 29.9045C46.9394 29.8378 47.0031 29.8086 47.0712 29.8086C47.0924 29.8086 47.1179 29.8128 47.1392 29.8211C47.2115 29.8378 47.2157 29.867 47.2115 29.9128C47.203 29.9378 47.1987 29.9628 47.1945 29.9879C47.1902 30.0295 47.1817 30.0712 47.1689 30.1129C47.0669 30.4631 47.0286 30.8175 47.0031 31.2427C46.9776 31.7096 46.9649 32.0932 46.9649 32.4517C46.9649 33.002 47.0456 33.5231 47.1902 34.0026C47.2965 34.3444 47.2497 34.6029 47.0371 34.8447Z" fill="#F4F4F4"/>
<path d="M46.1995 28.4412C45.9529 28.8831 45.9954 29.2083 46.3483 29.5626C46.3653 29.5835 46.3696 29.5918 46.3738 29.596C46.3696 29.596 46.3653 29.6043 46.3441 29.621C46.2888 29.6585 46.225 29.6918 46.1442 29.721C45.6 29.917 45.1451 30.2672 44.7625 30.5798C44.1205 31.1093 43.5762 31.7346 43.1298 32.2724C42.8407 32.6226 42.5218 32.9436 42.22 33.2355C41.9861 33.4606 41.8076 33.6857 41.6673 33.9192C41.5865 34.0526 41.4844 34.1109 41.3399 34.0943C40.9445 34.0567 40.8594 34.015 40.7702 33.6482C40.7191 33.4147 40.7064 33.1771 40.7021 32.8936C40.6851 32.5184 40.8212 32.1015 40.9445 31.7805C41.2719 30.9133 41.8331 30.1129 42.6621 29.325C43.3594 28.6663 44.0567 28.191 44.7965 27.8617C45.2897 27.6449 45.7148 27.5323 46.1315 27.5073C46.1782 27.5073 46.225 27.5073 46.2718 27.4823C46.3143 27.4615 46.3526 27.4531 46.3951 27.4531C46.4759 27.4531 46.5566 27.4948 46.6629 27.5907C46.7182 27.6407 46.782 27.6949 46.7862 27.7158C46.7862 27.7324 46.714 27.8033 46.6672 27.8492C46.4759 28.0284 46.3186 28.2285 46.1995 28.4412Z" fill="white"/>
<path d="M46.3231 26.8774C46.238 26.9441 46.1317 26.9566 46.0169 26.9692H45.9829C45.7491 27.0025 45.5535 27.0525 45.3792 27.1192C45.1411 27.2151 44.903 27.3068 44.6649 27.3986C44.4821 27.4694 44.295 27.5445 44.108 27.6153C44.0697 27.632 44.0442 27.6362 44.0229 27.6278C43.7296 27.4944 43.4107 27.4653 43.1088 27.4569C42.7389 27.4486 42.4626 27.2318 42.2372 27.0317C42.233 27.0317 42.2245 27.0233 42.2202 27.0233C42.0969 26.8983 41.7568 26.7524 41.4847 26.644C41.4804 26.644 41.4719 26.6398 41.4677 26.6398C41.3614 26.6148 41.2509 26.5814 41.1488 26.5314C40.9915 26.4564 40.8214 26.3855 40.6259 26.3146C40.5663 26.2938 40.5281 26.2688 40.5196 26.2438C40.5068 26.2187 40.5196 26.1729 40.5493 26.1145C40.6641 25.8894 40.8555 25.7143 41.1701 25.5475C41.3571 25.4517 41.5697 25.3975 41.7568 25.3975H41.8078C42.0332 25.3975 42.1777 25.4266 42.3053 25.5017C42.5561 25.6434 42.8325 25.7018 43.1003 25.7518L43.1811 25.7685C43.3809 25.8102 43.5723 25.8936 43.7551 25.9728C43.8103 25.9978 43.8699 26.0228 43.9251 26.0436C44.6182 26.3355 45.3664 26.4981 46.1488 26.5314H46.187C46.187 26.5314 46.2168 26.5314 46.2253 26.5356C46.2593 26.5439 46.2976 26.5398 46.3273 26.5356C46.3868 26.5314 46.3911 26.5356 46.4038 26.5606C46.4421 26.669 46.4038 26.8149 46.3231 26.8774Z" fill="#EFEDE4"/>
<path d="M55.2774 17.5508C55.2774 17.6967 55.2477 17.8343 55.1924 17.9635C54.9288 18.5597 54.7375 19.1892 54.5546 19.7978C54.5164 19.9187 54.4824 20.0396 54.4441 20.1605C54.1592 21.0819 53.8021 22.1658 53.3302 23.1872C53.1388 23.5957 52.956 23.9584 52.6499 24.2503C52.5394 24.3587 52.4118 24.4796 52.2673 24.5671C52.0674 24.6838 51.8676 24.8256 51.6763 24.9923C51.5827 25.0716 51.4722 25.0882 51.3489 25.1049C51.3617 25.059 51.3829 25.0174 51.3999 24.9757C51.5572 24.6005 51.4935 24.342 51.1661 24.0877C50.9663 23.9293 50.7409 23.7667 50.4476 23.7333C50.3625 23.7208 50.2987 23.6583 50.2435 23.529C50.1074 23.2164 50.0734 22.8954 50.1414 22.5827C50.286 21.9282 50.5964 21.332 51.0598 20.8109C51.1278 20.74 51.1831 20.6608 51.2299 20.5816C51.2639 20.5316 51.3021 20.4899 51.3447 20.469C51.3532 20.4607 51.3617 20.4524 51.3659 20.444L51.8081 19.9104C51.8293 19.8854 51.8548 19.8604 51.8804 19.8354L52.4586 19.2892C52.5776 19.16 52.7052 19.0391 52.8327 18.9224C52.973 18.7973 53.1133 18.6639 53.2409 18.5221C53.4024 18.3429 53.5683 18.1678 53.7341 17.9969C53.8021 17.926 53.8701 17.8509 53.9382 17.7801C54.0997 17.6091 54.2273 17.4257 54.3251 17.2381C54.4271 17.038 54.7545 16.8504 54.9926 16.8629C55.0266 16.8671 55.0436 16.8796 55.0691 16.9213C55.2094 17.1339 55.2774 17.3382 55.2774 17.5508Z" fill="white"/>
<path d="M51.1311 19.9817C50.8377 20.3027 50.4721 20.7029 50.2042 21.149C49.8598 21.7285 49.6685 22.2329 49.6047 22.7332C49.5579 23.0917 49.609 23.4252 49.762 23.7129C49.7705 23.7254 49.7748 23.7379 49.7748 23.7463H49.7493C49.6898 23.7421 49.6345 23.7504 49.575 23.7546C49.5452 23.7588 49.5197 23.7588 49.4772 23.7671C49.4517 23.7713 49.4389 23.7713 49.4389 23.7713C49.4389 23.7713 49.4304 23.7546 49.4304 23.7087C49.4304 23.3669 49.3709 23.0334 49.2476 22.6873C49.069 22.1912 49.001 21.6659 48.9585 21.2157C48.9415 21.0281 48.9457 20.828 48.9542 20.6404C48.9542 20.5403 48.9585 20.4403 48.9585 20.3402C48.967 20.286 49.0052 20.0234 49.0478 19.7858L49.069 19.6565C49.154 19.2188 49.2306 18.8061 49.5154 18.46C49.694 18.2432 49.9108 18.0723 50.1617 17.9556C50.2425 17.9139 50.37 17.8847 50.5231 18.0598C50.6294 18.1849 50.7186 18.3308 50.7824 18.5017C50.893 18.7935 50.9993 19.0854 51.1055 19.3814L51.1948 19.6357C51.2501 19.7774 51.2331 19.8775 51.1311 19.9817Z" fill="#F4F4F4"/>
<path d="M48.9635 23.6715C48.9508 23.9008 48.8445 24.0676 48.6532 24.1634C48.2152 24.3886 48.1897 24.7846 48.211 25.0598V25.0848C48.2152 25.1265 48.2195 25.1682 48.2195 25.1765C48.2067 25.1848 48.1515 25.1973 48.109 25.2015C47.6328 25.2849 47.2629 25.4141 46.9355 25.6142C46.8632 25.6559 46.8079 25.706 46.7654 25.7643C46.6761 25.8977 46.5401 25.9686 46.353 25.9769C46.0086 25.9936 45.6983 25.9644 45.4092 25.8811C45.2859 25.8435 45.1668 25.8102 45.0435 25.7768C44.7884 25.706 44.5248 25.6309 44.2697 25.5475C43.8318 25.3975 43.3896 25.1515 42.9219 24.7971L42.6583 24.6012C42.2502 24.2927 41.825 23.9717 41.4296 23.634C41.2978 23.5214 41.1788 23.388 41.0682 23.2379C41.0087 23.1629 40.9874 23.1004 41.0044 23.0503C41.0172 23.0003 41.0725 22.9545 41.166 22.9128C41.5529 22.7585 41.9696 22.671 42.4117 22.6626C42.4415 22.6626 42.467 22.6585 42.4968 22.6585C42.9602 22.6585 43.4449 22.7585 44.0146 22.9586C44.1039 22.992 44.1932 23.0253 44.2825 23.0545C44.5248 23.1379 44.7757 23.2213 45.0095 23.3422C45.3241 23.4964 45.609 23.709 45.8811 23.9133C45.9406 23.9592 45.9959 24.0009 46.0554 24.0425C46.1107 24.0842 46.1702 24.1301 46.2297 24.1718C46.3445 24.2635 46.4678 24.3552 46.5954 24.4386C46.842 24.6054 47.1098 24.6929 47.3904 24.7012H47.5477C47.6668 24.7096 47.7901 24.7096 47.9134 24.7096C47.9899 24.7096 48.0494 24.6762 48.0792 24.622C48.1089 24.572 48.1047 24.5011 48.0622 24.4344C48.0027 24.3302 47.9006 24.2677 47.7858 24.2635C47.1311 24.226 46.6974 23.8341 46.3233 23.4172C46.0511 23.1129 45.8428 22.7543 45.6472 22.4042L45.609 22.3458C45.3539 21.8997 45.0648 21.4578 44.7884 21.0326C44.7034 20.9033 44.6183 20.7741 44.5333 20.6407C44.4185 20.4614 44.3292 20.2822 44.2697 20.1071C44.1422 19.7152 43.9678 19.3358 43.7978 18.9731C43.734 18.8397 43.6702 18.7021 43.6107 18.5687C43.5044 18.3311 43.4151 18.0851 43.3301 17.8433L43.2536 17.6182C43.16 17.3639 43.1005 17.1096 43.0367 16.8219C42.9687 16.5093 42.9347 16.1757 42.9432 15.8005C42.9474 15.7255 42.9602 15.663 42.9815 15.6046C43.0112 15.5421 43.0282 15.5296 43.041 15.5254C43.0495 15.5254 43.0708 15.5254 43.126 15.5587C43.2833 15.6546 43.4279 15.7755 43.5682 15.8881C43.6192 15.9298 43.6702 15.9715 43.7212 16.0132C44.6183 16.7344 45.2774 17.3222 45.8471 17.9309C46.3318 18.4395 46.8164 19.0106 47.3734 19.7235C47.9899 20.5156 48.3385 21.4078 48.6021 22.179C48.6361 22.2791 48.6702 22.3791 48.7084 22.475C48.802 22.7252 48.8998 22.9836 48.938 23.2504C48.955 23.3839 48.972 23.5256 48.9635 23.6715Z" fill="white"/>
<path d="M83.2354 24.352C83.6034 22.928 83.6194 21.888 83.6194 20.8H75.3314V19.472H85.2514V20.688C85.2514 21.84 85.2514 23.04 84.8514 24.528L83.2354 24.352ZM86.8514 25.392V26.72H73.8274V25.392H78.9474V22.736H80.6114V25.392H86.8514ZM80.2914 27.84C83.3634 27.84 85.3474 28.864 85.3474 30.528C85.3474 32.208 83.3634 33.232 80.2914 33.232C77.1714 33.232 75.2034 32.208 75.2034 30.528C75.2034 28.864 77.1714 27.84 80.2914 27.84ZM80.2914 31.968C82.4194 31.968 83.6994 31.44 83.6994 30.528C83.6994 29.632 82.4194 29.104 80.2914 29.104C78.0994 29.104 76.8354 29.632 76.8354 30.528C76.8354 31.44 78.0994 31.968 80.2914 31.968ZM101.378 23.488H99.3302V26.928H97.6822V18.768H99.3302V22.128H101.378V23.488ZM95.3622 19.648C95.3622 23.408 92.8822 26 88.6102 27.152L87.9702 25.84C91.4262 24.944 93.3142 23.184 93.5862 20.992H88.6262V19.648H95.3622ZM90.0982 27.552H99.3302V33.056H90.0982V27.552ZM91.7302 31.728H97.6982V28.864H91.7302V31.728ZM118.475 30.112V31.472H105.387V30.112H111.083V27.2H106.859V19.744H108.491V22.176H115.339V19.744H116.971V27.2H112.731V30.112H118.475ZM108.491 25.872H115.339V23.504H108.491V25.872ZM131.914 18.784V33.232H130.346V25.888H128.634V32.512H127.082V19.072H128.634V24.528H130.346V18.784H131.914ZM121.914 28.176C123.194 28.128 124.554 28.048 126.154 27.744L126.33 29.152C124.394 29.52 122.762 29.584 121.226 29.584H120.266V20.448H121.914V28.176ZM145.785 18.784V33.232H144.137V18.784H145.785ZM141.529 20.304C141.529 24.608 139.801 28.256 134.841 30.656L133.961 29.344C137.753 27.504 139.561 24.976 139.833 21.648H134.681V20.304H141.529Z" fill="#282828"/>
</svg>
