<svg width="400" height="50" viewBox="0 0 400 50" fill="none" xmlns="http://www.w3.org/2000/svg">
<rect width="400" height="50" rx="6" fill="#282828"/>
<path d="M165.367 26.056H163.831V18.024H165.367V21.416H166.967V17.768H168.535V27.32H166.967V22.76H165.367V26.056ZM163.143 25.176C161.431 25.512 159.975 25.576 157.847 25.576H156.871V18.968H162.455V20.312H158.503V24.232C160.231 24.216 161.527 24.136 162.999 23.832L163.143 25.176ZM164.471 27.128C164.471 28.888 166.455 30.488 169.255 30.904L168.567 32.184C166.311 31.8 164.567 30.776 163.671 29.24C162.775 30.776 160.999 31.8 158.743 32.184L158.071 30.904C160.855 30.472 162.839 28.888 162.839 27.128V26.632H164.471V27.128ZM183.637 23.032V24.36H170.549V23.032H180.053C180.357 21.624 180.389 20.6 180.389 19.704H172.197V18.376H182.005V19.336C182.005 20.296 182.005 21.496 181.701 23.032H183.637ZM173.733 30.792H182.389V32.088H172.085V28.2H180.373V26.904H172.053V25.592H182.021V29.432H173.733V30.792ZM199.454 23.336H189.518V18.28H199.358V19.608H191.15V22.008H199.454V23.336ZM200.958 24.536V25.896H187.902V24.536H200.958ZM194.382 26.968C197.486 26.968 199.358 27.928 199.358 29.592C199.358 31.272 197.566 32.232 194.382 32.232C191.294 32.232 189.406 31.272 189.406 29.592C189.406 27.928 191.294 26.968 194.382 26.968ZM194.382 30.952C196.51 30.952 197.694 30.488 197.694 29.592C197.694 28.696 196.51 28.232 194.382 28.232C192.254 28.232 191.086 28.696 191.086 29.592C191.086 30.488 192.254 30.952 194.382 30.952ZM215.213 25.64V26.968H202.109V25.64H207.837V24.328H203.789V20.6H211.933V19.384H203.757V18.12H213.565V21.784H205.405V23.064H213.853V24.328H209.485V25.64H215.213ZM203.581 27.944H213.645V32.152H211.997V29.272H203.581V27.944ZM229.804 24.968H227.58V32.248H225.916V17.784H227.58V23.592H229.804V24.968ZM221.372 20.008H224.748V21.352H216.284V20.008H219.724V17.992H221.372V20.008ZM220.572 22.376C222.62 22.376 224.156 23.768 224.156 25.752C224.156 27.736 222.62 29.128 220.572 29.128C218.476 29.128 216.988 27.736 216.988 25.752C216.988 23.768 218.476 22.376 220.572 22.376ZM220.572 27.768C221.74 27.768 222.588 26.968 222.588 25.752C222.588 24.536 221.74 23.736 220.572 23.736C219.404 23.736 218.556 24.536 218.556 25.752C218.556 26.968 219.404 27.768 220.572 27.768ZM242.523 17.784V32.232H240.875V17.784H242.523ZM238.267 19.304C238.267 23.608 236.539 27.256 231.579 29.656L230.699 28.344C234.491 26.504 236.299 23.976 236.571 20.648H231.419V19.304H238.267Z" fill="#FAFAFA"/>
</svg>
